<svg id="Layer_5" data-name="Layer 5" xmlns="http://www.w3.org/2000/svg" viewBox="0 0 38.26 35.11"><defs><style>.cls-1{fill:#2d92bd;}</style></defs><path class="cls-1" d="M261.79,424.58V417a3.43,3.43,0,1,0-4.36-3.3,4.55,4.55,0,0,0,0,.53l-9.7,4.45a3.42,3.42,0,1,0,.74,2.12,2.6,2.6,0,0,0,0-.4l9.77-4.48a3.41,3.41,0,0,0,1.68,1.08v7.6a3.44,3.44,0,0,0-2.5,3.3,4,4,0,0,0,0,.5l-9.76,4.4a3.42,3.42,0,0,0-5.25,0l-9.64-4.34a3.47,3.47,0,0,0-2.58-3.89V417a3.42,3.42,0,0,0,2.62-3.33,3.27,3.27,0,0,0,0-.54l9.61-4.27a3.37,3.37,0,0,0,2.65,1.27,3.42,3.42,0,1,0-3.39-3L232,411.45a3.42,3.42,0,1,0-3.66,5.49v7.68a3.42,3.42,0,1,0,3.65,5.5l9.67,4.35a2.92,2.92,0,0,0,0,.51,3.43,3.43,0,0,0,6.85,0,4.38,4.38,0,0,0,0-.51l9.76-4.39a3.43,3.43,0,1,0,3.56-5.5Zm-34-10.9a1.64,1.64,0,1,1,1.63,1.64A1.63,1.63,0,0,1,227.81,413.68Z" transform="translate(-226.02 -403.29)"/></svg>